<mxfile host="app.diagrams.net" modified="2021-04-18T10:33:37.322Z" agent="5.0 (Macintosh; Intel Mac OS X 10_15_7) AppleWebKit/537.36 (KHTML, like Gecko) Chrome/90.0.4430.72 Safari/537.36" etag="OKpqFEGwtQNfs-Qu-_VL" version="14.6.1" type="github">
  <diagram id="C5RBs43oDa-KdzZeNtuy" name="Page-1">
    <mxGraphModel dx="757" dy="1686" grid="1" gridSize="10" guides="1" tooltips="1" connect="1" arrows="1" fold="1" page="1" pageScale="1" pageWidth="827" pageHeight="1169" math="0" shadow="0">
      <root>
        <mxCell id="WIyWlLk6GJQsqaUBKTNV-0" />
        <mxCell id="WIyWlLk6GJQsqaUBKTNV-1" parent="WIyWlLk6GJQsqaUBKTNV-0" />
        <mxCell id="pszC3b5Wna7HMnzYmOuA-0" value="&lt;font style=&quot;font-size: 16px&quot;&gt;This Part relies on &quot;How to bring users to open up a link in the browser&quot;&lt;br&gt;Based on the marketing strategy, the customer will land on the following hypothetical URL.&lt;br&gt;&lt;/font&gt;" style="shape=ext;double=1;rounded=1;whiteSpace=wrap;html=1;fillColor=none;" parent="WIyWlLk6GJQsqaUBKTNV-1" vertex="1">
          <mxGeometry x="25" y="-1120" width="510" height="360" as="geometry" />
        </mxCell>
        <mxCell id="pszC3b5Wna7HMnzYmOuA-4" value="" style="edgeStyle=none;rounded=0;orthogonalLoop=1;jettySize=auto;html=1;" parent="WIyWlLk6GJQsqaUBKTNV-1" source="pszC3b5Wna7HMnzYmOuA-1" target="pszC3b5Wna7HMnzYmOuA-3" edge="1">
          <mxGeometry relative="1" as="geometry" />
        </mxCell>
        <mxCell id="pszC3b5Wna7HMnzYmOuA-1" value="&lt;font style=&quot;font-size: 16px&quot;&gt;https://example.com&lt;/font&gt;" style="rounded=0;whiteSpace=wrap;html=1;fillColor=none;strokeWidth=2;" parent="WIyWlLk6GJQsqaUBKTNV-1" vertex="1">
          <mxGeometry x="160" y="-870" width="240" height="70" as="geometry" />
        </mxCell>
        <mxCell id="pszC3b5Wna7HMnzYmOuA-7" value="" style="edgeStyle=none;rounded=0;orthogonalLoop=1;jettySize=auto;html=1;" parent="WIyWlLk6GJQsqaUBKTNV-1" source="pszC3b5Wna7HMnzYmOuA-3" target="pszC3b5Wna7HMnzYmOuA-6" edge="1">
          <mxGeometry relative="1" as="geometry" />
        </mxCell>
        <mxCell id="pszC3b5Wna7HMnzYmOuA-3" value="&lt;font style=&quot;font-size: 16px&quot;&gt;Page Loads&lt;br&gt;&lt;hr&gt;Landing Page&lt;br&gt;&lt;/font&gt;" style="rounded=0;whiteSpace=wrap;html=1;fillColor=none;strokeWidth=2;" parent="WIyWlLk6GJQsqaUBKTNV-1" vertex="1">
          <mxGeometry x="165" y="-720" width="230" height="70" as="geometry" />
        </mxCell>
        <mxCell id="pszC3b5Wna7HMnzYmOuA-9" value="" style="edgeStyle=none;rounded=0;orthogonalLoop=1;jettySize=auto;html=1;" parent="WIyWlLk6GJQsqaUBKTNV-1" source="pszC3b5Wna7HMnzYmOuA-6" target="pszC3b5Wna7HMnzYmOuA-8" edge="1">
          <mxGeometry relative="1" as="geometry" />
        </mxCell>
        <mxCell id="pszC3b5Wna7HMnzYmOuA-11" value="" style="edgeStyle=none;rounded=0;orthogonalLoop=1;jettySize=auto;html=1;" parent="WIyWlLk6GJQsqaUBKTNV-1" source="pszC3b5Wna7HMnzYmOuA-6" target="pszC3b5Wna7HMnzYmOuA-10" edge="1">
          <mxGeometry relative="1" as="geometry" />
        </mxCell>
        <mxCell id="pszC3b5Wna7HMnzYmOuA-6" value="&lt;font style=&quot;font-size: 14px&quot;&gt;Start of Application&lt;/font&gt;" style="strokeWidth=2;html=1;shape=mxgraph.flowchart.terminator;whiteSpace=wrap;fillColor=none;" parent="WIyWlLk6GJQsqaUBKTNV-1" vertex="1">
          <mxGeometry x="221.66" y="-565" width="116.67" height="70" as="geometry" />
        </mxCell>
        <mxCell id="pszC3b5Wna7HMnzYmOuA-8" value="&lt;font style=&quot;font-size: 14px&quot;&gt;Sign In&lt;/font&gt;" style="whiteSpace=wrap;html=1;strokeWidth=2;fillColor=none;" parent="WIyWlLk6GJQsqaUBKTNV-1" vertex="1">
          <mxGeometry x="50" y="-560" width="120" height="60" as="geometry" />
        </mxCell>
        <mxCell id="pszC3b5Wna7HMnzYmOuA-13" value="" style="edgeStyle=none;rounded=0;orthogonalLoop=1;jettySize=auto;html=1;" parent="WIyWlLk6GJQsqaUBKTNV-1" source="pszC3b5Wna7HMnzYmOuA-10" target="pszC3b5Wna7HMnzYmOuA-12" edge="1">
          <mxGeometry relative="1" as="geometry" />
        </mxCell>
        <mxCell id="pszC3b5Wna7HMnzYmOuA-10" value="&lt;span style=&quot;font-size: 14px&quot;&gt;Call to Action Button&lt;br&gt;&lt;/span&gt;&lt;hr&gt;&lt;font style=&quot;font-size: 14px&quot;&gt;Browse Menu&lt;/font&gt;" style="shape=parallelogram;perimeter=parallelogramPerimeter;whiteSpace=wrap;html=1;fixedSize=1;strokeWidth=2;fillColor=none;" parent="WIyWlLk6GJQsqaUBKTNV-1" vertex="1">
          <mxGeometry x="180" y="-420" width="200" height="90" as="geometry" />
        </mxCell>
        <mxCell id="pszC3b5Wna7HMnzYmOuA-16" value="" style="edgeStyle=none;rounded=0;orthogonalLoop=1;jettySize=auto;html=1;" parent="WIyWlLk6GJQsqaUBKTNV-1" source="pszC3b5Wna7HMnzYmOuA-12" target="pszC3b5Wna7HMnzYmOuA-15" edge="1">
          <mxGeometry relative="1" as="geometry" />
        </mxCell>
        <mxCell id="pszC3b5Wna7HMnzYmOuA-12" value="&lt;font style=&quot;font-size: 14px&quot;&gt;Menu Loads&lt;br&gt;&lt;/font&gt;&lt;hr style=&quot;font-size: 14px&quot;&gt;&lt;font style=&quot;font-size: 14px&quot;&gt;List of Categorized Menu Items&lt;/font&gt;" style="rounded=0;whiteSpace=wrap;html=1;fillColor=none;strokeWidth=2;" parent="WIyWlLk6GJQsqaUBKTNV-1" vertex="1">
          <mxGeometry x="140" y="-270" width="280" height="90" as="geometry" />
        </mxCell>
        <mxCell id="pszC3b5Wna7HMnzYmOuA-31" value="" style="edgeStyle=none;rounded=0;orthogonalLoop=1;jettySize=auto;html=1;" parent="WIyWlLk6GJQsqaUBKTNV-1" source="pszC3b5Wna7HMnzYmOuA-15" target="pszC3b5Wna7HMnzYmOuA-17" edge="1">
          <mxGeometry relative="1" as="geometry" />
        </mxCell>
        <mxCell id="pszC3b5Wna7HMnzYmOuA-15" value="&lt;font style=&quot;font-size: 14px&quot;&gt;Selectable Menu Item&lt;br&gt;&lt;/font&gt;&lt;hr style=&quot;font-size: 14px&quot;&gt;&lt;font style=&quot;font-size: 14px&quot;&gt;User Selects a desirable menu item&lt;/font&gt;" style="shape=parallelogram;perimeter=parallelogramPerimeter;whiteSpace=wrap;html=1;fixedSize=1;strokeWidth=2;fillColor=none;" parent="WIyWlLk6GJQsqaUBKTNV-1" vertex="1">
          <mxGeometry x="133.57" y="-110" width="292.86" height="100" as="geometry" />
        </mxCell>
        <mxCell id="pszC3b5Wna7HMnzYmOuA-34" value="" style="edgeStyle=none;rounded=0;orthogonalLoop=1;jettySize=auto;html=1;strokeWidth=1;" parent="WIyWlLk6GJQsqaUBKTNV-1" source="pszC3b5Wna7HMnzYmOuA-17" target="pszC3b5Wna7HMnzYmOuA-33" edge="1">
          <mxGeometry relative="1" as="geometry" />
        </mxCell>
        <mxCell id="pszC3b5Wna7HMnzYmOuA-17" value="&lt;font style=&quot;font-size: 14px&quot;&gt;Ingredients Customization Loads&lt;/font&gt;&lt;hr&gt;&lt;font style=&quot;font-size: 14px&quot;&gt;Description of Menu Item and a Customization form&lt;/font&gt;" style="rounded=0;whiteSpace=wrap;html=1;strokeWidth=2;fillColor=none;" parent="WIyWlLk6GJQsqaUBKTNV-1" vertex="1">
          <mxGeometry x="105" y="60" width="350" height="100" as="geometry" />
        </mxCell>
        <mxCell id="pszC3b5Wna7HMnzYmOuA-18" value="&lt;font style=&quot;font-size: 14px&quot;&gt;Dynamic Price Component&lt;br&gt;&lt;/font&gt;&lt;hr style=&quot;font-size: 14px&quot;&gt;&lt;font style=&quot;font-size: 14px&quot;&gt;Item&#39;s Price Adjustment&lt;/font&gt;" style="rounded=0;whiteSpace=wrap;html=1;strokeWidth=2;fillColor=none;" parent="WIyWlLk6GJQsqaUBKTNV-1" vertex="1">
          <mxGeometry x="700" y="80" width="210" height="60" as="geometry" />
        </mxCell>
        <mxCell id="pszC3b5Wna7HMnzYmOuA-25" value="Label" style="endArrow=classic;html=1;exitX=1;exitY=0.5;exitDx=0;exitDy=0;entryX=0;entryY=0.5;entryDx=0;entryDy=0;strokeWidth=1;" parent="WIyWlLk6GJQsqaUBKTNV-1" source="pszC3b5Wna7HMnzYmOuA-17" target="pszC3b5Wna7HMnzYmOuA-18" edge="1">
          <mxGeometry relative="1" as="geometry">
            <mxPoint x="510" y="120" as="sourcePoint" />
            <mxPoint x="670" y="120" as="targetPoint" />
          </mxGeometry>
        </mxCell>
        <mxCell id="pszC3b5Wna7HMnzYmOuA-26" value="Dynamic" style="edgeLabel;resizable=0;html=1;align=center;verticalAlign=middle;" parent="pszC3b5Wna7HMnzYmOuA-25" connectable="0" vertex="1">
          <mxGeometry relative="1" as="geometry" />
        </mxCell>
        <mxCell id="pszC3b5Wna7HMnzYmOuA-27" value="Changes in form&amp;nbsp;" style="edgeLabel;resizable=0;html=1;align=left;verticalAlign=bottom;" parent="pszC3b5Wna7HMnzYmOuA-25" connectable="0" vertex="1">
          <mxGeometry x="-1" relative="1" as="geometry">
            <mxPoint x="5" as="offset" />
          </mxGeometry>
        </mxCell>
        <mxCell id="pszC3b5Wna7HMnzYmOuA-28" value="Changes in Price" style="edgeLabel;resizable=0;html=1;align=right;verticalAlign=bottom;" parent="pszC3b5Wna7HMnzYmOuA-25" connectable="0" vertex="1">
          <mxGeometry x="1" relative="1" as="geometry">
            <mxPoint x="-10" as="offset" />
          </mxGeometry>
        </mxCell>
        <mxCell id="pszC3b5Wna7HMnzYmOuA-36" style="edgeStyle=orthogonalEdgeStyle;rounded=0;orthogonalLoop=1;jettySize=auto;html=1;exitX=0;exitY=0.5;exitDx=0;exitDy=0;strokeWidth=1;entryX=0;entryY=0.5;entryDx=0;entryDy=0;" parent="WIyWlLk6GJQsqaUBKTNV-1" source="pszC3b5Wna7HMnzYmOuA-33" target="pszC3b5Wna7HMnzYmOuA-12" edge="1">
          <mxGeometry relative="1" as="geometry">
            <mxPoint x="60" y="-110" as="targetPoint" />
            <Array as="points">
              <mxPoint x="40" y="335" />
              <mxPoint x="40" y="-225" />
            </Array>
          </mxGeometry>
        </mxCell>
        <mxCell id="pszC3b5Wna7HMnzYmOuA-42" style="edgeStyle=none;rounded=0;orthogonalLoop=1;jettySize=auto;html=1;exitX=0.5;exitY=1;exitDx=0;exitDy=0;entryX=0.5;entryY=0;entryDx=0;entryDy=0;strokeWidth=1;" parent="WIyWlLk6GJQsqaUBKTNV-1" source="pszC3b5Wna7HMnzYmOuA-33" target="pszC3b5Wna7HMnzYmOuA-41" edge="1">
          <mxGeometry relative="1" as="geometry" />
        </mxCell>
        <mxCell id="pszC3b5Wna7HMnzYmOuA-33" value="&lt;font style=&quot;font-size: 13px&quot;&gt;Confirm AND Cancel Buttons&lt;br&gt;&lt;/font&gt;&lt;hr style=&quot;font-size: 13px&quot;&gt;&lt;font style=&quot;font-size: 14px&quot;&gt;User selects a desirable action&lt;/font&gt;" style="rhombus;whiteSpace=wrap;html=1;strokeWidth=2;fillColor=none;" parent="WIyWlLk6GJQsqaUBKTNV-1" vertex="1">
          <mxGeometry x="102.5" y="250" width="355" height="170" as="geometry" />
        </mxCell>
        <mxCell id="pszC3b5Wna7HMnzYmOuA-40" value="Cancel" style="edgeLabel;resizable=0;html=1;align=left;verticalAlign=bottom;" parent="WIyWlLk6GJQsqaUBKTNV-1" connectable="0" vertex="1">
          <mxGeometry x="60" y="335" as="geometry" />
        </mxCell>
        <mxCell id="FM6P1bmNul1NjfTxwIoS-1" style="edgeStyle=orthogonalEdgeStyle;rounded=0;orthogonalLoop=1;jettySize=auto;html=1;exitX=0;exitY=0.5;exitDx=0;exitDy=0;entryX=0;entryY=0.5;entryDx=0;entryDy=0;" parent="WIyWlLk6GJQsqaUBKTNV-1" source="pszC3b5Wna7HMnzYmOuA-41" target="pszC3b5Wna7HMnzYmOuA-12" edge="1">
          <mxGeometry relative="1" as="geometry">
            <mxPoint x="40" y="-220" as="targetPoint" />
            <Array as="points">
              <mxPoint x="40" y="570" />
              <mxPoint x="40" y="-225" />
            </Array>
          </mxGeometry>
        </mxCell>
        <mxCell id="pszC3b5Wna7HMnzYmOuA-41" value="&lt;font style=&quot;font-size: 14px&quot;&gt;Customized Menu Item Added to Cart&lt;br&gt;&lt;/font&gt;&lt;hr style=&quot;font-size: 14px&quot;&gt;&lt;font style=&quot;font-size: 14px&quot;&gt;Clickable Cart Icon gets Highlighted with Number of Items&lt;/font&gt;" style="rounded=0;whiteSpace=wrap;html=1;strokeWidth=2;fillColor=none;" parent="WIyWlLk6GJQsqaUBKTNV-1" vertex="1">
          <mxGeometry x="52.5" y="520" width="455" height="100" as="geometry" />
        </mxCell>
        <mxCell id="pszC3b5Wna7HMnzYmOuA-43" value="Confirm" style="edgeLabel;resizable=0;html=1;align=left;verticalAlign=bottom;" parent="WIyWlLk6GJQsqaUBKTNV-1" connectable="0" vertex="1">
          <mxGeometry x="230" y="440" as="geometry" />
        </mxCell>
        <mxCell id="FM6P1bmNul1NjfTxwIoS-2" value="&lt;font style=&quot;font-size: 13px&quot;&gt;Clickable Cart Indicator In Header and Before Footer&lt;br&gt;&lt;hr&gt;Cart Status&lt;br&gt;&lt;/font&gt;" style="rounded=0;whiteSpace=wrap;html=1;strokeWidth=2;" parent="WIyWlLk6GJQsqaUBKTNV-1" vertex="1">
          <mxGeometry x="625" y="-270" width="385" height="90" as="geometry" />
        </mxCell>
        <mxCell id="FM6P1bmNul1NjfTxwIoS-5" value="&amp;nbsp;Order Cart&amp;nbsp;" style="endArrow=classic;html=1;exitX=1;exitY=0.5;exitDx=0;exitDy=0;entryX=0;entryY=0.5;entryDx=0;entryDy=0;" parent="WIyWlLk6GJQsqaUBKTNV-1" source="pszC3b5Wna7HMnzYmOuA-12" target="FM6P1bmNul1NjfTxwIoS-2" edge="1">
          <mxGeometry relative="1" as="geometry">
            <mxPoint x="426.43" y="-225.34" as="sourcePoint" />
            <mxPoint x="620" y="-225" as="targetPoint" />
          </mxGeometry>
        </mxCell>
        <mxCell id="FM6P1bmNul1NjfTxwIoS-7" value="" style="endArrow=none;dashed=1;html=1;exitX=1;exitY=0.5;exitDx=0;exitDy=0;edgeStyle=orthogonalEdgeStyle;entryX=0.5;entryY=1;entryDx=0;entryDy=0;" parent="WIyWlLk6GJQsqaUBKTNV-1" source="pszC3b5Wna7HMnzYmOuA-41" target="FM6P1bmNul1NjfTxwIoS-2" edge="1">
          <mxGeometry width="50" height="50" relative="1" as="geometry">
            <mxPoint x="730" y="460" as="sourcePoint" />
            <mxPoint x="812" y="-179" as="targetPoint" />
            <Array as="points">
              <mxPoint x="930" y="570" />
              <mxPoint x="930" y="-60" />
              <mxPoint x="818" y="-60" />
              <mxPoint x="818" y="-180" />
            </Array>
          </mxGeometry>
        </mxCell>
        <mxCell id="FM6P1bmNul1NjfTxwIoS-14" style="edgeStyle=none;rounded=0;orthogonalLoop=1;jettySize=auto;html=1;exitX=0.5;exitY=1;exitDx=0;exitDy=0;entryX=0.5;entryY=0;entryDx=0;entryDy=0;" parent="WIyWlLk6GJQsqaUBKTNV-1" source="FM6P1bmNul1NjfTxwIoS-10" target="FM6P1bmNul1NjfTxwIoS-12" edge="1">
          <mxGeometry relative="1" as="geometry" />
        </mxCell>
        <mxCell id="FM6P1bmNul1NjfTxwIoS-10" value="&lt;font style=&quot;font-size: 13px&quot;&gt;Order Cart / Proceed to Order Buttons&lt;br&gt;&lt;/font&gt;&lt;hr style=&quot;font-size: 13px&quot;&gt;&lt;font style=&quot;font-size: 13px&quot;&gt;User Clicks the Order Button&lt;/font&gt;" style="shape=parallelogram;perimeter=parallelogramPerimeter;whiteSpace=wrap;html=1;fixedSize=1;strokeWidth=2;" parent="WIyWlLk6GJQsqaUBKTNV-1" vertex="1">
          <mxGeometry x="1150" y="-270" width="270" height="90" as="geometry" />
        </mxCell>
        <mxCell id="FM6P1bmNul1NjfTxwIoS-11" value="" style="endArrow=classic;html=1;exitX=1;exitY=0.5;exitDx=0;exitDy=0;entryX=0;entryY=0.5;entryDx=0;entryDy=0;" parent="WIyWlLk6GJQsqaUBKTNV-1" source="FM6P1bmNul1NjfTxwIoS-2" target="FM6P1bmNul1NjfTxwIoS-10" edge="1">
          <mxGeometry width="50" height="50" relative="1" as="geometry">
            <mxPoint x="1100" y="-140" as="sourcePoint" />
            <mxPoint x="1150" y="-190" as="targetPoint" />
          </mxGeometry>
        </mxCell>
        <mxCell id="FM6P1bmNul1NjfTxwIoS-17" style="edgeStyle=none;rounded=0;orthogonalLoop=1;jettySize=auto;html=1;exitX=1;exitY=0.5;exitDx=0;exitDy=0;entryX=0;entryY=0.5;entryDx=0;entryDy=0;" parent="WIyWlLk6GJQsqaUBKTNV-1" source="FM6P1bmNul1NjfTxwIoS-12" target="FM6P1bmNul1NjfTxwIoS-15" edge="1">
          <mxGeometry relative="1" as="geometry" />
        </mxCell>
        <mxCell id="FM6P1bmNul1NjfTxwIoS-18" style="edgeStyle=none;rounded=0;orthogonalLoop=1;jettySize=auto;html=1;exitX=0.5;exitY=1;exitDx=0;exitDy=0;" parent="WIyWlLk6GJQsqaUBKTNV-1" source="FM6P1bmNul1NjfTxwIoS-12" edge="1">
          <mxGeometry relative="1" as="geometry">
            <mxPoint x="1285" y="68" as="targetPoint" />
          </mxGeometry>
        </mxCell>
        <mxCell id="FM6P1bmNul1NjfTxwIoS-12" value="Interactive Order Detail Loads&amp;nbsp;&lt;br&gt;&lt;hr&gt;List of Customized Menu Items in the Order" style="rounded=0;whiteSpace=wrap;html=1;strokeWidth=2;" parent="WIyWlLk6GJQsqaUBKTNV-1" vertex="1">
          <mxGeometry x="1145" y="-110" width="280" height="90" as="geometry" />
        </mxCell>
        <mxCell id="FM6P1bmNul1NjfTxwIoS-20" style="edgeStyle=orthogonalEdgeStyle;rounded=1;orthogonalLoop=1;jettySize=auto;html=1;entryX=0.5;entryY=0;entryDx=0;entryDy=0;exitX=0.5;exitY=0;exitDx=0;exitDy=0;dashed=1;elbow=vertical;endArrow=none;endFill=0;" parent="WIyWlLk6GJQsqaUBKTNV-1" source="FM6P1bmNul1NjfTxwIoS-15" target="FM6P1bmNul1NjfTxwIoS-2" edge="1">
          <mxGeometry relative="1" as="geometry">
            <mxPoint x="890" y="-290" as="targetPoint" />
            <Array as="points">
              <mxPoint x="1730" y="-300" />
              <mxPoint x="818" y="-300" />
            </Array>
          </mxGeometry>
        </mxCell>
        <mxCell id="FM6P1bmNul1NjfTxwIoS-23" style="edgeStyle=orthogonalEdgeStyle;rounded=0;orthogonalLoop=1;jettySize=auto;html=1;exitX=0.5;exitY=1;exitDx=0;exitDy=0;endArrow=none;endFill=0;entryX=0.5;entryY=0;entryDx=0;entryDy=0;" parent="WIyWlLk6GJQsqaUBKTNV-1" source="FM6P1bmNul1NjfTxwIoS-15" target="FM6P1bmNul1NjfTxwIoS-24" edge="1">
          <mxGeometry relative="1" as="geometry">
            <mxPoint x="1580" y="190" as="targetPoint" />
            <Array as="points">
              <mxPoint x="1730" y="30" />
              <mxPoint x="1578" y="30" />
            </Array>
          </mxGeometry>
        </mxCell>
        <mxCell id="FM6P1bmNul1NjfTxwIoS-15" value="Delete Menu Item Button&lt;br&gt;&lt;hr&gt;User deletes a Menu Item from Order Cart" style="shape=parallelogram;perimeter=parallelogramPerimeter;whiteSpace=wrap;html=1;fixedSize=1;strokeWidth=2;" parent="WIyWlLk6GJQsqaUBKTNV-1" vertex="1">
          <mxGeometry x="1580" y="-110" width="300" height="90" as="geometry" />
        </mxCell>
        <mxCell id="FM6P1bmNul1NjfTxwIoS-19" style="edgeStyle=orthogonalEdgeStyle;rounded=0;orthogonalLoop=1;jettySize=auto;html=1;exitX=0;exitY=0.5;exitDx=0;exitDy=0;entryX=0.75;entryY=0;entryDx=0;entryDy=0;" parent="WIyWlLk6GJQsqaUBKTNV-1" source="FM6P1bmNul1NjfTxwIoS-16" target="pszC3b5Wna7HMnzYmOuA-17" edge="1">
          <mxGeometry relative="1" as="geometry">
            <mxPoint x="610" y="40" as="targetPoint" />
            <Array as="points">
              <mxPoint x="940" y="115" />
              <mxPoint x="940" y="30" />
              <mxPoint x="368" y="30" />
            </Array>
          </mxGeometry>
        </mxCell>
        <mxCell id="FM6P1bmNul1NjfTxwIoS-22" style="edgeStyle=orthogonalEdgeStyle;rounded=0;orthogonalLoop=1;jettySize=auto;html=1;exitX=0.5;exitY=1;exitDx=0;exitDy=0;endArrow=classic;endFill=1;entryX=0.5;entryY=0;entryDx=0;entryDy=0;startArrow=none;startFill=0;" parent="WIyWlLk6GJQsqaUBKTNV-1" source="FM6P1bmNul1NjfTxwIoS-16" target="FM6P1bmNul1NjfTxwIoS-24" edge="1">
          <mxGeometry relative="1" as="geometry">
            <mxPoint x="1580" y="210" as="targetPoint" />
          </mxGeometry>
        </mxCell>
        <mxCell id="FM6P1bmNul1NjfTxwIoS-16" value="Clickable Menu Item&lt;br&gt;&lt;hr&gt;User clicks a Menu Item to customize ingredients" style="shape=parallelogram;perimeter=parallelogramPerimeter;whiteSpace=wrap;html=1;fixedSize=1;strokeWidth=2;" parent="WIyWlLk6GJQsqaUBKTNV-1" vertex="1">
          <mxGeometry x="1117.5" y="70" width="335" height="90" as="geometry" />
        </mxCell>
        <mxCell id="FM6P1bmNul1NjfTxwIoS-28" style="edgeStyle=orthogonalEdgeStyle;rounded=0;orthogonalLoop=1;jettySize=auto;html=1;exitX=0;exitY=0.5;exitDx=0;exitDy=0;startArrow=none;startFill=0;endArrow=none;endFill=0;" parent="WIyWlLk6GJQsqaUBKTNV-1" source="FM6P1bmNul1NjfTxwIoS-24" edge="1">
          <mxGeometry relative="1" as="geometry">
            <mxPoint x="40" y="570" as="targetPoint" />
            <Array as="points">
              <mxPoint x="920" y="305" />
              <mxPoint x="920" y="630" />
              <mxPoint x="40" y="630" />
            </Array>
          </mxGeometry>
        </mxCell>
        <mxCell id="FM6P1bmNul1NjfTxwIoS-33" style="edgeStyle=none;rounded=0;orthogonalLoop=1;jettySize=auto;html=1;exitX=0.5;exitY=1;exitDx=0;exitDy=0;startArrow=none;startFill=0;endArrow=classic;endFill=1;" parent="WIyWlLk6GJQsqaUBKTNV-1" source="FM6P1bmNul1NjfTxwIoS-24" target="FM6P1bmNul1NjfTxwIoS-32" edge="1">
          <mxGeometry relative="1" as="geometry" />
        </mxCell>
        <mxCell id="FM6P1bmNul1NjfTxwIoS-24" value="&lt;font style=&quot;font-size: 14px&quot;&gt;Confirm or Cancel Order Buttons&lt;br&gt;&lt;/font&gt;&lt;hr style=&quot;font-size: 14px&quot;&gt;&lt;font style=&quot;font-size: 14px&quot;&gt;User selects a desirable option&lt;br&gt;&lt;/font&gt;" style="rhombus;whiteSpace=wrap;html=1;strokeWidth=2;" parent="WIyWlLk6GJQsqaUBKTNV-1" vertex="1">
          <mxGeometry x="1420" y="230" width="316" height="150" as="geometry" />
        </mxCell>
        <mxCell id="FM6P1bmNul1NjfTxwIoS-30" value="&lt;meta charset=&quot;utf-8&quot;&gt;&lt;span style=&quot;color: rgb(0, 0, 0); font-family: helvetica; font-size: 11px; font-style: normal; font-weight: 400; letter-spacing: normal; text-align: left; text-indent: 0px; text-transform: none; word-spacing: 0px; background-color: rgb(255, 255, 255); display: inline; float: none;&quot;&gt;Cancel&lt;/span&gt;" style="text;whiteSpace=wrap;html=1;" parent="WIyWlLk6GJQsqaUBKTNV-1" vertex="1">
          <mxGeometry x="1380" y="280" width="60" height="30" as="geometry" />
        </mxCell>
        <mxCell id="FM6P1bmNul1NjfTxwIoS-39" style="edgeStyle=orthogonalEdgeStyle;rounded=0;orthogonalLoop=1;jettySize=auto;html=1;exitX=0.5;exitY=1;exitDx=0;exitDy=0;startArrow=none;startFill=0;endArrow=classic;endFill=1;strokeWidth=1;" parent="WIyWlLk6GJQsqaUBKTNV-1" source="FM6P1bmNul1NjfTxwIoS-32" target="FM6P1bmNul1NjfTxwIoS-37" edge="1">
          <mxGeometry relative="1" as="geometry" />
        </mxCell>
        <mxCell id="FM6P1bmNul1NjfTxwIoS-40" style="edgeStyle=orthogonalEdgeStyle;rounded=0;orthogonalLoop=1;jettySize=auto;html=1;exitX=0.5;exitY=1;exitDx=0;exitDy=0;startArrow=none;startFill=0;endArrow=classic;endFill=1;strokeWidth=1;" parent="WIyWlLk6GJQsqaUBKTNV-1" source="FM6P1bmNul1NjfTxwIoS-32" target="FM6P1bmNul1NjfTxwIoS-38" edge="1">
          <mxGeometry relative="1" as="geometry" />
        </mxCell>
        <mxCell id="FM6P1bmNul1NjfTxwIoS-32" value="&lt;font style=&quot;font-size: 14px&quot;&gt;User Detail Form Loads&amp;nbsp;&lt;br&gt;&lt;/font&gt;&lt;hr style=&quot;font-size: 14px&quot;&gt;&lt;font style=&quot;font-size: 14px&quot;&gt;An editable form to get user information for either delivery or pickup&lt;/font&gt;" style="rounded=0;whiteSpace=wrap;html=1;strokeWidth=2;" parent="WIyWlLk6GJQsqaUBKTNV-1" vertex="1">
          <mxGeometry x="1358" y="460" width="440" height="90" as="geometry" />
        </mxCell>
        <mxCell id="FM6P1bmNul1NjfTxwIoS-34" value="&lt;span style=&quot;color: rgb(0 , 0 , 0) ; font-family: &amp;#34;helvetica&amp;#34; ; font-size: 11px ; font-style: normal ; font-weight: 400 ; letter-spacing: normal ; text-align: left ; text-indent: 0px ; text-transform: none ; word-spacing: 0px ; background-color: rgb(255 , 255 , 255) ; display: inline ; float: none&quot;&gt;Confirm&lt;/span&gt;" style="text;whiteSpace=wrap;html=1;" parent="WIyWlLk6GJQsqaUBKTNV-1" vertex="1">
          <mxGeometry x="1530" y="380" width="60" height="30" as="geometry" />
        </mxCell>
        <mxCell id="FM6P1bmNul1NjfTxwIoS-43" style="edgeStyle=none;rounded=0;orthogonalLoop=1;jettySize=auto;html=1;exitX=0.5;exitY=1;exitDx=0;exitDy=0;startArrow=none;startFill=0;endArrow=classic;endFill=1;strokeWidth=1;" parent="WIyWlLk6GJQsqaUBKTNV-1" source="FM6P1bmNul1NjfTxwIoS-37" target="FM6P1bmNul1NjfTxwIoS-41" edge="1">
          <mxGeometry relative="1" as="geometry" />
        </mxCell>
        <mxCell id="FM6P1bmNul1NjfTxwIoS-37" value="&lt;font style=&quot;font-size: 14px&quot;&gt;A Tab for Pickup&lt;br&gt;&lt;/font&gt;&lt;hr style=&quot;font-size: 14px&quot;&gt;&lt;font style=&quot;font-size: 14px&quot;&gt;User selects to Pickup the Order&amp;nbsp;&lt;/font&gt;" style="shape=parallelogram;perimeter=parallelogramPerimeter;whiteSpace=wrap;html=1;fixedSize=1;strokeWidth=2;" parent="WIyWlLk6GJQsqaUBKTNV-1" vertex="1">
          <mxGeometry x="1105" y="640" width="300" height="90" as="geometry" />
        </mxCell>
        <mxCell id="FM6P1bmNul1NjfTxwIoS-44" style="edgeStyle=none;rounded=0;orthogonalLoop=1;jettySize=auto;html=1;exitX=0.5;exitY=1;exitDx=0;exitDy=0;entryX=0.5;entryY=0;entryDx=0;entryDy=0;startArrow=none;startFill=0;endArrow=classic;endFill=1;strokeWidth=1;" parent="WIyWlLk6GJQsqaUBKTNV-1" source="FM6P1bmNul1NjfTxwIoS-38" target="FM6P1bmNul1NjfTxwIoS-42" edge="1">
          <mxGeometry relative="1" as="geometry" />
        </mxCell>
        <mxCell id="FM6P1bmNul1NjfTxwIoS-38" value="&lt;font style=&quot;font-size: 14px&quot;&gt;A Tab for Delivery&lt;br&gt;&lt;/font&gt;&lt;hr style=&quot;font-size: 14px&quot;&gt;&lt;font style=&quot;font-size: 14px&quot;&gt;User selects to get the order delivered&lt;/font&gt;" style="shape=parallelogram;perimeter=parallelogramPerimeter;whiteSpace=wrap;html=1;fixedSize=1;strokeWidth=2;" parent="WIyWlLk6GJQsqaUBKTNV-1" vertex="1">
          <mxGeometry x="1752" y="640" width="300" height="90" as="geometry" />
        </mxCell>
        <mxCell id="FM6P1bmNul1NjfTxwIoS-47" style="edgeStyle=none;rounded=0;orthogonalLoop=1;jettySize=auto;html=1;exitX=0.5;exitY=1;exitDx=0;exitDy=0;startArrow=none;startFill=0;endArrow=classic;endFill=1;strokeWidth=1;" parent="WIyWlLk6GJQsqaUBKTNV-1" source="FM6P1bmNul1NjfTxwIoS-41" target="FM6P1bmNul1NjfTxwIoS-46" edge="1">
          <mxGeometry relative="1" as="geometry" />
        </mxCell>
        <mxCell id="FM6P1bmNul1NjfTxwIoS-41" value="&lt;font style=&quot;font-size: 14px&quot;&gt;A form with basic validations&lt;br&gt;&lt;/font&gt;&lt;hr style=&quot;font-size: 14px&quot;&gt;&lt;font style=&quot;font-size: 14px&quot;&gt;User inputs their basic information&amp;nbsp;&lt;/font&gt;" style="shape=parallelogram;perimeter=parallelogramPerimeter;whiteSpace=wrap;html=1;fixedSize=1;strokeWidth=2;" parent="WIyWlLk6GJQsqaUBKTNV-1" vertex="1">
          <mxGeometry x="1105" y="800" width="300" height="90" as="geometry" />
        </mxCell>
        <mxCell id="ng4lnUKTJqoICK68N6fb-3" style="edgeStyle=none;rounded=0;orthogonalLoop=1;jettySize=auto;html=1;" edge="1" parent="WIyWlLk6GJQsqaUBKTNV-1" source="FM6P1bmNul1NjfTxwIoS-42" target="ng4lnUKTJqoICK68N6fb-2">
          <mxGeometry relative="1" as="geometry" />
        </mxCell>
        <mxCell id="FM6P1bmNul1NjfTxwIoS-42" value="&lt;font style=&quot;font-size: 14px&quot;&gt;A form with basic validations&lt;br&gt;&lt;/font&gt;&lt;hr style=&quot;font-size: 14px&quot;&gt;&lt;font style=&quot;font-size: 14px&quot;&gt;User inputs their basic information&lt;/font&gt;" style="shape=parallelogram;perimeter=parallelogramPerimeter;whiteSpace=wrap;html=1;fixedSize=1;strokeWidth=2;" parent="WIyWlLk6GJQsqaUBKTNV-1" vertex="1">
          <mxGeometry x="1752" y="800" width="300" height="90" as="geometry" />
        </mxCell>
        <mxCell id="FM6P1bmNul1NjfTxwIoS-49" style="edgeStyle=none;rounded=0;orthogonalLoop=1;jettySize=auto;html=1;exitX=0.5;exitY=1;exitDx=0;exitDy=0;entryX=0.5;entryY=0;entryDx=0;entryDy=0;startArrow=none;startFill=0;endArrow=classic;endFill=1;strokeWidth=1;" parent="WIyWlLk6GJQsqaUBKTNV-1" source="FM6P1bmNul1NjfTxwIoS-46" target="FM6P1bmNul1NjfTxwIoS-48" edge="1">
          <mxGeometry relative="1" as="geometry" />
        </mxCell>
        <mxCell id="FM6P1bmNul1NjfTxwIoS-46" value="&lt;font style=&quot;font-size: 14px&quot;&gt;Pickup Timetable with Dates (async)&lt;br&gt;&lt;/font&gt;&lt;hr style=&quot;font-size: 14px&quot;&gt;&lt;span style=&quot;font-size: 14px&quot;&gt;A table showing available time and date&lt;/span&gt;" style="rounded=0;whiteSpace=wrap;html=1;strokeWidth=2;" parent="WIyWlLk6GJQsqaUBKTNV-1" vertex="1">
          <mxGeometry x="1085" y="960" width="340" height="90" as="geometry" />
        </mxCell>
        <mxCell id="FM6P1bmNul1NjfTxwIoS-51" style="edgeStyle=none;rounded=0;orthogonalLoop=1;jettySize=auto;html=1;exitX=0.5;exitY=1;exitDx=0;exitDy=0;startArrow=none;startFill=0;endArrow=classic;endFill=1;strokeWidth=1;" parent="WIyWlLk6GJQsqaUBKTNV-1" source="FM6P1bmNul1NjfTxwIoS-48" target="FM6P1bmNul1NjfTxwIoS-50" edge="1">
          <mxGeometry relative="1" as="geometry" />
        </mxCell>
        <mxCell id="FM6P1bmNul1NjfTxwIoS-48" value="&lt;font style=&quot;font-size: 14px&quot;&gt;Selectable Time and Date&lt;br&gt;&lt;/font&gt;&lt;hr style=&quot;font-size: 14px&quot;&gt;&lt;font style=&quot;font-size: 14px&quot;&gt;User selects a desirable time &amp;amp; date&amp;nbsp;&lt;/font&gt;" style="shape=parallelogram;perimeter=parallelogramPerimeter;whiteSpace=wrap;html=1;fixedSize=1;strokeWidth=2;" parent="WIyWlLk6GJQsqaUBKTNV-1" vertex="1">
          <mxGeometry x="1105" y="1130" width="300" height="90" as="geometry" />
        </mxCell>
        <mxCell id="FM6P1bmNul1NjfTxwIoS-53" style="edgeStyle=orthogonalEdgeStyle;rounded=1;orthogonalLoop=1;jettySize=auto;html=1;exitX=0;exitY=0.5;exitDx=0;exitDy=0;startArrow=none;startFill=0;endArrow=none;endFill=0;strokeWidth=1;entryX=0.5;entryY=1;entryDx=0;entryDy=0;dashed=1;" parent="WIyWlLk6GJQsqaUBKTNV-1" source="FM6P1bmNul1NjfTxwIoS-50" target="FM6P1bmNul1NjfTxwIoS-2" edge="1">
          <mxGeometry relative="1" as="geometry">
            <mxPoint x="830" y="-100" as="targetPoint" />
            <Array as="points">
              <mxPoint x="930" y="1375" />
              <mxPoint x="930" y="-60" />
              <mxPoint x="818" y="-60" />
            </Array>
          </mxGeometry>
        </mxCell>
        <mxCell id="FM6P1bmNul1NjfTxwIoS-54" style="edgeStyle=orthogonalEdgeStyle;rounded=0;orthogonalLoop=1;jettySize=auto;html=1;exitX=1;exitY=0.5;exitDx=0;exitDy=0;startArrow=none;startFill=0;endArrow=none;endFill=0;strokeWidth=1;entryX=0.5;entryY=1;entryDx=0;entryDy=0;" parent="WIyWlLk6GJQsqaUBKTNV-1" source="FM6P1bmNul1NjfTxwIoS-50" target="FM6P1bmNul1NjfTxwIoS-32" edge="1">
          <mxGeometry relative="1" as="geometry">
            <mxPoint x="1580" y="600" as="targetPoint" />
            <Array as="points">
              <mxPoint x="1578" y="1375" />
            </Array>
          </mxGeometry>
        </mxCell>
        <mxCell id="ng4lnUKTJqoICK68N6fb-16" style="edgeStyle=orthogonalEdgeStyle;rounded=0;orthogonalLoop=1;jettySize=auto;html=1;exitX=0.5;exitY=1;exitDx=0;exitDy=0;entryX=0.25;entryY=0;entryDx=0;entryDy=0;endArrow=classic;endFill=1;" edge="1" parent="WIyWlLk6GJQsqaUBKTNV-1" source="FM6P1bmNul1NjfTxwIoS-50" target="ng4lnUKTJqoICK68N6fb-15">
          <mxGeometry relative="1" as="geometry" />
        </mxCell>
        <mxCell id="FM6P1bmNul1NjfTxwIoS-50" value="&lt;font style=&quot;font-size: 14px&quot;&gt;Confirm or Cancel Buttons&lt;br&gt;&lt;/font&gt;&lt;hr style=&quot;font-size: 14px&quot;&gt;&lt;font style=&quot;font-size: 14px&quot;&gt;User selects a desirable option&lt;br&gt;&lt;/font&gt;" style="rhombus;whiteSpace=wrap;html=1;strokeWidth=2;" parent="WIyWlLk6GJQsqaUBKTNV-1" vertex="1">
          <mxGeometry x="1097" y="1300" width="316" height="150" as="geometry" />
        </mxCell>
        <mxCell id="FM6P1bmNul1NjfTxwIoS-55" value="&lt;meta charset=&quot;utf-8&quot;&gt;&lt;span style=&quot;color: rgb(0, 0, 0); font-family: helvetica; font-size: 11px; font-style: normal; font-weight: 400; letter-spacing: normal; text-align: left; text-indent: 0px; text-transform: none; word-spacing: 0px; background-color: rgb(255, 255, 255); display: inline; float: none;&quot;&gt;Cancel&lt;/span&gt;" style="text;whiteSpace=wrap;html=1;" parent="WIyWlLk6GJQsqaUBKTNV-1" vertex="1">
          <mxGeometry x="1413" y="1350" width="60" height="30" as="geometry" />
        </mxCell>
        <mxCell id="ng4lnUKTJqoICK68N6fb-5" style="edgeStyle=none;rounded=0;orthogonalLoop=1;jettySize=auto;html=1;exitX=0.5;exitY=1;exitDx=0;exitDy=0;entryX=0.5;entryY=0;entryDx=0;entryDy=0;" edge="1" parent="WIyWlLk6GJQsqaUBKTNV-1" source="ng4lnUKTJqoICK68N6fb-2" target="ng4lnUKTJqoICK68N6fb-4">
          <mxGeometry relative="1" as="geometry" />
        </mxCell>
        <mxCell id="ng4lnUKTJqoICK68N6fb-2" value="&lt;font style=&quot;font-size: 14px&quot;&gt;Get Delivery Address (Postal Code !Important )&amp;nbsp;&lt;br&gt;&lt;/font&gt;&lt;hr style=&quot;font-size: 14px&quot;&gt;&lt;font style=&quot;font-size: 14px&quot;&gt;User inputs the Delivery Address&lt;/font&gt;" style="shape=parallelogram;perimeter=parallelogramPerimeter;whiteSpace=wrap;html=1;fixedSize=1;strokeWidth=2;" vertex="1" parent="WIyWlLk6GJQsqaUBKTNV-1">
          <mxGeometry x="1692" y="970" width="420" height="90" as="geometry" />
        </mxCell>
        <mxCell id="ng4lnUKTJqoICK68N6fb-12" style="edgeStyle=none;rounded=0;orthogonalLoop=1;jettySize=auto;html=1;exitX=0.5;exitY=1;exitDx=0;exitDy=0;entryX=0.5;entryY=0;entryDx=0;entryDy=0;" edge="1" parent="WIyWlLk6GJQsqaUBKTNV-1" source="ng4lnUKTJqoICK68N6fb-4" target="ng4lnUKTJqoICK68N6fb-7">
          <mxGeometry relative="1" as="geometry" />
        </mxCell>
        <mxCell id="ng4lnUKTJqoICK68N6fb-4" value="&lt;font style=&quot;font-size: 14px&quot;&gt;Calculate Delivery Charge Based on Address&lt;br&gt;&lt;/font&gt;&lt;hr style=&quot;font-size: 14px&quot;&gt;&lt;font style=&quot;font-size: 14px&quot;&gt;Display Delivery Charge&lt;/font&gt;" style="rounded=0;whiteSpace=wrap;html=1;strokeWidth=2;" vertex="1" parent="WIyWlLk6GJQsqaUBKTNV-1">
          <mxGeometry x="1716" y="1130" width="372" height="90" as="geometry" />
        </mxCell>
        <mxCell id="ng4lnUKTJqoICK68N6fb-6" style="edgeStyle=none;rounded=0;orthogonalLoop=1;jettySize=auto;html=1;exitX=0.5;exitY=1;exitDx=0;exitDy=0;entryX=0.5;entryY=0;entryDx=0;entryDy=0;startArrow=none;startFill=0;endArrow=classic;endFill=1;strokeWidth=1;" edge="1" parent="WIyWlLk6GJQsqaUBKTNV-1" source="ng4lnUKTJqoICK68N6fb-7" target="ng4lnUKTJqoICK68N6fb-9">
          <mxGeometry relative="1" as="geometry" />
        </mxCell>
        <mxCell id="ng4lnUKTJqoICK68N6fb-7" value="&lt;font style=&quot;font-size: 14px&quot;&gt;Delivery Timetable with Dates (async)&lt;br&gt;&lt;/font&gt;&lt;hr style=&quot;font-size: 14px&quot;&gt;&lt;span style=&quot;font-size: 14px&quot;&gt;A table showing available time and date&lt;/span&gt;" style="rounded=0;whiteSpace=wrap;html=1;strokeWidth=2;" vertex="1" parent="WIyWlLk6GJQsqaUBKTNV-1">
          <mxGeometry x="1732" y="1290" width="340" height="90" as="geometry" />
        </mxCell>
        <mxCell id="ng4lnUKTJqoICK68N6fb-8" style="edgeStyle=none;rounded=0;orthogonalLoop=1;jettySize=auto;html=1;exitX=0.5;exitY=1;exitDx=0;exitDy=0;startArrow=none;startFill=0;endArrow=classic;endFill=1;strokeWidth=1;" edge="1" parent="WIyWlLk6GJQsqaUBKTNV-1" source="ng4lnUKTJqoICK68N6fb-9" target="ng4lnUKTJqoICK68N6fb-10">
          <mxGeometry relative="1" as="geometry" />
        </mxCell>
        <mxCell id="ng4lnUKTJqoICK68N6fb-9" value="&lt;font style=&quot;font-size: 14px&quot;&gt;Selectable Time and Date&lt;br&gt;&lt;/font&gt;&lt;hr style=&quot;font-size: 14px&quot;&gt;&lt;font style=&quot;font-size: 14px&quot;&gt;User selects a desirable time &amp;amp; date&amp;nbsp;&lt;/font&gt;" style="shape=parallelogram;perimeter=parallelogramPerimeter;whiteSpace=wrap;html=1;fixedSize=1;strokeWidth=2;" vertex="1" parent="WIyWlLk6GJQsqaUBKTNV-1">
          <mxGeometry x="1752" y="1460" width="300" height="90" as="geometry" />
        </mxCell>
        <mxCell id="ng4lnUKTJqoICK68N6fb-13" style="edgeStyle=orthogonalEdgeStyle;rounded=0;orthogonalLoop=1;jettySize=auto;html=1;exitX=0;exitY=0.5;exitDx=0;exitDy=0;entryX=0.5;entryY=1;entryDx=0;entryDy=0;endArrow=none;endFill=0;" edge="1" parent="WIyWlLk6GJQsqaUBKTNV-1" source="ng4lnUKTJqoICK68N6fb-10" target="FM6P1bmNul1NjfTxwIoS-32">
          <mxGeometry relative="1" as="geometry">
            <mxPoint x="1580" y="570" as="targetPoint" />
          </mxGeometry>
        </mxCell>
        <mxCell id="ng4lnUKTJqoICK68N6fb-14" style="edgeStyle=orthogonalEdgeStyle;rounded=1;orthogonalLoop=1;jettySize=auto;html=1;exitX=1;exitY=0.5;exitDx=0;exitDy=0;endArrow=none;endFill=0;entryX=0.5;entryY=0;entryDx=0;entryDy=0;dashed=1;" edge="1" parent="WIyWlLk6GJQsqaUBKTNV-1" source="ng4lnUKTJqoICK68N6fb-10" target="FM6P1bmNul1NjfTxwIoS-2">
          <mxGeometry relative="1" as="geometry">
            <mxPoint x="1340" y="-300" as="targetPoint" />
            <Array as="points">
              <mxPoint x="2260" y="1705" />
              <mxPoint x="2260" y="-300" />
              <mxPoint x="817" y="-300" />
            </Array>
          </mxGeometry>
        </mxCell>
        <mxCell id="ng4lnUKTJqoICK68N6fb-17" style="edgeStyle=orthogonalEdgeStyle;rounded=0;orthogonalLoop=1;jettySize=auto;html=1;exitX=0.5;exitY=1;exitDx=0;exitDy=0;entryX=0.75;entryY=0;entryDx=0;entryDy=0;endArrow=classic;endFill=1;" edge="1" parent="WIyWlLk6GJQsqaUBKTNV-1" source="ng4lnUKTJqoICK68N6fb-10" target="ng4lnUKTJqoICK68N6fb-15">
          <mxGeometry relative="1" as="geometry" />
        </mxCell>
        <mxCell id="ng4lnUKTJqoICK68N6fb-10" value="&lt;font style=&quot;font-size: 14px&quot;&gt;Confirm or Cancel Buttons&lt;br&gt;&lt;/font&gt;&lt;hr style=&quot;font-size: 14px&quot;&gt;&lt;font style=&quot;font-size: 14px&quot;&gt;User selects a desirable option&lt;br&gt;&lt;/font&gt;" style="rhombus;whiteSpace=wrap;html=1;strokeWidth=2;" vertex="1" parent="WIyWlLk6GJQsqaUBKTNV-1">
          <mxGeometry x="1744" y="1630" width="316" height="150" as="geometry" />
        </mxCell>
        <mxCell id="ng4lnUKTJqoICK68N6fb-11" value="&lt;meta charset=&quot;utf-8&quot;&gt;&lt;span style=&quot;color: rgb(0, 0, 0); font-family: helvetica; font-size: 11px; font-style: normal; font-weight: 400; letter-spacing: normal; text-align: left; text-indent: 0px; text-transform: none; word-spacing: 0px; background-color: rgb(255, 255, 255); display: inline; float: none;&quot;&gt;Cancel&lt;/span&gt;" style="text;whiteSpace=wrap;html=1;" vertex="1" parent="WIyWlLk6GJQsqaUBKTNV-1">
          <mxGeometry x="1692" y="1680" width="60" height="30" as="geometry" />
        </mxCell>
        <mxCell id="ng4lnUKTJqoICK68N6fb-22" style="rounded=0;orthogonalLoop=1;jettySize=auto;html=1;exitX=0.5;exitY=1;exitDx=0;exitDy=0;entryX=0.5;entryY=0;entryDx=0;entryDy=0;endArrow=classic;endFill=1;" edge="1" parent="WIyWlLk6GJQsqaUBKTNV-1" source="ng4lnUKTJqoICK68N6fb-15" target="ng4lnUKTJqoICK68N6fb-21">
          <mxGeometry relative="1" as="geometry" />
        </mxCell>
        <mxCell id="ng4lnUKTJqoICK68N6fb-15" value="&lt;font style=&quot;font-size: 14px&quot;&gt;Order Breakdown with Total Charges Loads&lt;br&gt;&lt;/font&gt;&lt;hr style=&quot;font-size: 14px&quot;&gt;&lt;span style=&quot;font-size: 14px&quot;&gt;Order Detail with all Charges, Discounts and Taxes&lt;br&gt;&lt;/span&gt;" style="rounded=0;whiteSpace=wrap;html=1;strokeWidth=2;" vertex="1" parent="WIyWlLk6GJQsqaUBKTNV-1">
          <mxGeometry x="1364" y="1870" width="428" height="90" as="geometry" />
        </mxCell>
        <mxCell id="ng4lnUKTJqoICK68N6fb-18" value="&lt;span style=&quot;color: rgb(0 , 0 , 0) ; font-family: &amp;#34;helvetica&amp;#34; ; font-size: 11px ; font-style: normal ; font-weight: 400 ; letter-spacing: normal ; text-align: left ; text-indent: 0px ; text-transform: none ; word-spacing: 0px ; background-color: rgb(255 , 255 , 255) ; display: inline ; float: none&quot;&gt;Confirm&lt;/span&gt;" style="text;whiteSpace=wrap;html=1;" vertex="1" parent="WIyWlLk6GJQsqaUBKTNV-1">
          <mxGeometry x="1260" y="1450" width="60" height="30" as="geometry" />
        </mxCell>
        <mxCell id="ng4lnUKTJqoICK68N6fb-19" value="&lt;span style=&quot;color: rgb(0 , 0 , 0) ; font-family: &amp;#34;helvetica&amp;#34; ; font-size: 11px ; font-style: normal ; font-weight: 400 ; letter-spacing: normal ; text-align: left ; text-indent: 0px ; text-transform: none ; word-spacing: 0px ; background-color: rgb(255 , 255 , 255) ; display: inline ; float: none&quot;&gt;Confirm&lt;/span&gt;" style="text;whiteSpace=wrap;html=1;" vertex="1" parent="WIyWlLk6GJQsqaUBKTNV-1">
          <mxGeometry x="1910" y="1780" width="60" height="30" as="geometry" />
        </mxCell>
        <mxCell id="ng4lnUKTJqoICK68N6fb-28" style="edgeStyle=none;rounded=0;orthogonalLoop=1;jettySize=auto;html=1;exitX=0.5;exitY=1;exitDx=0;exitDy=0;entryX=0.5;entryY=0;entryDx=0;entryDy=0;endArrow=classic;endFill=1;" edge="1" parent="WIyWlLk6GJQsqaUBKTNV-1" source="ng4lnUKTJqoICK68N6fb-20" target="ng4lnUKTJqoICK68N6fb-27">
          <mxGeometry relative="1" as="geometry" />
        </mxCell>
        <mxCell id="ng4lnUKTJqoICK68N6fb-20" value="&lt;font style=&quot;font-size: 14px&quot;&gt;Payment Checkout Loads (Stripe Interface)&lt;br&gt;&lt;/font&gt;&lt;hr style=&quot;font-size: 14px&quot;&gt;&lt;span style=&quot;font-size: 14px&quot;&gt;A form to get payment information&lt;br&gt;&lt;/span&gt;" style="rounded=0;whiteSpace=wrap;html=1;strokeWidth=2;" vertex="1" parent="WIyWlLk6GJQsqaUBKTNV-1">
          <mxGeometry x="1364" y="2270" width="428" height="90" as="geometry" />
        </mxCell>
        <mxCell id="ng4lnUKTJqoICK68N6fb-23" style="edgeStyle=none;rounded=0;orthogonalLoop=1;jettySize=auto;html=1;exitX=0.5;exitY=1;exitDx=0;exitDy=0;entryX=0.5;entryY=0;entryDx=0;entryDy=0;endArrow=classic;endFill=1;" edge="1" parent="WIyWlLk6GJQsqaUBKTNV-1" source="ng4lnUKTJqoICK68N6fb-21" target="ng4lnUKTJqoICK68N6fb-20">
          <mxGeometry relative="1" as="geometry" />
        </mxCell>
        <mxCell id="ng4lnUKTJqoICK68N6fb-24" style="edgeStyle=orthogonalEdgeStyle;rounded=0;orthogonalLoop=1;jettySize=auto;html=1;exitX=0;exitY=0.5;exitDx=0;exitDy=0;endArrow=classic;endFill=1;entryX=0;entryY=0.5;entryDx=0;entryDy=0;" edge="1" parent="WIyWlLk6GJQsqaUBKTNV-1" source="ng4lnUKTJqoICK68N6fb-21" target="FM6P1bmNul1NjfTxwIoS-12">
          <mxGeometry relative="1" as="geometry">
            <mxPoint x="950" y="-50" as="targetPoint" />
            <Array as="points">
              <mxPoint x="950" y="2115" />
              <mxPoint x="950" y="-65" />
            </Array>
          </mxGeometry>
        </mxCell>
        <mxCell id="ng4lnUKTJqoICK68N6fb-21" value="&lt;font style=&quot;font-size: 14px&quot;&gt;Confirm or Cancel Buttons&lt;br&gt;&lt;/font&gt;&lt;hr style=&quot;font-size: 14px&quot;&gt;&lt;font style=&quot;font-size: 14px&quot;&gt;User selects a desirable option&lt;br&gt;&lt;/font&gt;" style="rhombus;whiteSpace=wrap;html=1;strokeWidth=2;" vertex="1" parent="WIyWlLk6GJQsqaUBKTNV-1">
          <mxGeometry x="1420" y="2040" width="316" height="150" as="geometry" />
        </mxCell>
        <mxCell id="ng4lnUKTJqoICK68N6fb-25" value="&lt;meta charset=&quot;utf-8&quot;&gt;&lt;span style=&quot;color: rgb(0, 0, 0); font-family: helvetica; font-size: 11px; font-style: normal; font-weight: 400; letter-spacing: normal; text-align: left; text-indent: 0px; text-transform: none; word-spacing: 0px; background-color: rgb(255, 255, 255); display: inline; float: none;&quot;&gt;Cancel&lt;/span&gt;" style="text;whiteSpace=wrap;html=1;" vertex="1" parent="WIyWlLk6GJQsqaUBKTNV-1">
          <mxGeometry x="1380" y="2090" width="60" height="30" as="geometry" />
        </mxCell>
        <mxCell id="ng4lnUKTJqoICK68N6fb-26" value="&lt;span style=&quot;color: rgb(0 , 0 , 0) ; font-family: &amp;#34;helvetica&amp;#34; ; font-size: 11px ; font-style: normal ; font-weight: 400 ; letter-spacing: normal ; text-align: left ; text-indent: 0px ; text-transform: none ; word-spacing: 0px ; background-color: rgb(255 , 255 , 255) ; display: inline ; float: none&quot;&gt;Confirm&lt;/span&gt;" style="text;whiteSpace=wrap;html=1;" vertex="1" parent="WIyWlLk6GJQsqaUBKTNV-1">
          <mxGeometry x="1590" y="2190" width="60" height="30" as="geometry" />
        </mxCell>
        <mxCell id="ng4lnUKTJqoICK68N6fb-31" style="edgeStyle=none;rounded=0;orthogonalLoop=1;jettySize=auto;html=1;exitX=0.5;exitY=1;exitDx=0;exitDy=0;endArrow=classic;endFill=1;" edge="1" parent="WIyWlLk6GJQsqaUBKTNV-1" source="ng4lnUKTJqoICK68N6fb-27" target="ng4lnUKTJqoICK68N6fb-30">
          <mxGeometry relative="1" as="geometry" />
        </mxCell>
        <mxCell id="ng4lnUKTJqoICK68N6fb-27" value="&lt;font style=&quot;font-size: 14px&quot;&gt;Stripe Form with Validation&lt;br&gt;&lt;/font&gt;&lt;hr style=&quot;font-size: 14px&quot;&gt;&lt;font style=&quot;font-size: 14px&quot;&gt;User enters payment information&lt;/font&gt;" style="shape=parallelogram;perimeter=parallelogramPerimeter;whiteSpace=wrap;html=1;fixedSize=1;strokeWidth=2;" vertex="1" parent="WIyWlLk6GJQsqaUBKTNV-1">
          <mxGeometry x="1428" y="2440" width="300" height="90" as="geometry" />
        </mxCell>
        <mxCell id="ng4lnUKTJqoICK68N6fb-33" style="edgeStyle=none;rounded=0;orthogonalLoop=1;jettySize=auto;html=1;exitX=0.5;exitY=1;exitDx=0;exitDy=0;entryX=0.5;entryY=0;entryDx=0;entryDy=0;endArrow=classic;endFill=1;" edge="1" parent="WIyWlLk6GJQsqaUBKTNV-1" source="ng4lnUKTJqoICK68N6fb-30" target="ng4lnUKTJqoICK68N6fb-32">
          <mxGeometry relative="1" as="geometry" />
        </mxCell>
        <mxCell id="ng4lnUKTJqoICK68N6fb-30" value="&lt;font style=&quot;font-size: 14px&quot;&gt;Payment Processing Loading Screen&lt;br&gt;&lt;/font&gt;&lt;hr style=&quot;font-size: 14px&quot;&gt;&lt;span style=&quot;font-size: 14px&quot;&gt;User sees a loading while the payment gets processed&lt;br&gt;&lt;/span&gt;" style="rounded=0;whiteSpace=wrap;html=1;strokeWidth=2;" vertex="1" parent="WIyWlLk6GJQsqaUBKTNV-1">
          <mxGeometry x="1364" y="2610" width="428" height="90" as="geometry" />
        </mxCell>
        <mxCell id="ng4lnUKTJqoICK68N6fb-35" style="edgeStyle=none;rounded=0;orthogonalLoop=1;jettySize=auto;html=1;exitX=0;exitY=0.5;exitDx=0;exitDy=0;entryX=1;entryY=0.5;entryDx=0;entryDy=0;endArrow=classic;endFill=1;" edge="1" parent="WIyWlLk6GJQsqaUBKTNV-1" source="ng4lnUKTJqoICK68N6fb-32" target="ng4lnUKTJqoICK68N6fb-34">
          <mxGeometry relative="1" as="geometry" />
        </mxCell>
        <mxCell id="ng4lnUKTJqoICK68N6fb-39" style="edgeStyle=none;rounded=0;orthogonalLoop=1;jettySize=auto;html=1;exitX=0.5;exitY=1;exitDx=0;exitDy=0;entryX=0.5;entryY=0;entryDx=0;entryDy=0;endArrow=classic;endFill=1;" edge="1" parent="WIyWlLk6GJQsqaUBKTNV-1" source="ng4lnUKTJqoICK68N6fb-32" target="ng4lnUKTJqoICK68N6fb-38">
          <mxGeometry relative="1" as="geometry" />
        </mxCell>
        <mxCell id="ng4lnUKTJqoICK68N6fb-32" value="&lt;font style=&quot;font-size: 14px&quot;&gt;Payment Processing Outcome&lt;br&gt;&lt;/font&gt;&lt;hr style=&quot;font-size: 14px&quot;&gt;&lt;font style=&quot;font-size: 14px&quot;&gt;Based on outcome user will be directed automatically&lt;br&gt;&lt;/font&gt;" style="rhombus;whiteSpace=wrap;html=1;strokeWidth=2;" vertex="1" parent="WIyWlLk6GJQsqaUBKTNV-1">
          <mxGeometry x="1278" y="2790" width="600" height="170" as="geometry" />
        </mxCell>
        <mxCell id="ng4lnUKTJqoICK68N6fb-37" style="edgeStyle=orthogonalEdgeStyle;rounded=0;orthogonalLoop=1;jettySize=auto;html=1;exitX=0.5;exitY=0;exitDx=0;exitDy=0;endArrow=classic;endFill=1;entryX=0;entryY=0.5;entryDx=0;entryDy=0;" edge="1" parent="WIyWlLk6GJQsqaUBKTNV-1" source="ng4lnUKTJqoICK68N6fb-34" target="ng4lnUKTJqoICK68N6fb-20">
          <mxGeometry relative="1" as="geometry">
            <mxPoint x="871" y="2320" as="targetPoint" />
          </mxGeometry>
        </mxCell>
        <mxCell id="ng4lnUKTJqoICK68N6fb-34" value="&lt;font style=&quot;font-size: 14px&quot;&gt;Payment Declined Dialog with Instructions to Proceed&lt;br&gt;&lt;/font&gt;&lt;hr style=&quot;font-size: 14px&quot;&gt;&lt;span style=&quot;font-size: 14px&quot;&gt;Pops up a dialog box indicating payment declined&lt;br&gt;&lt;/span&gt;" style="rounded=0;whiteSpace=wrap;html=1;strokeWidth=2;" vertex="1" parent="WIyWlLk6GJQsqaUBKTNV-1">
          <mxGeometry x="657" y="2830" width="428" height="90" as="geometry" />
        </mxCell>
        <mxCell id="ng4lnUKTJqoICK68N6fb-36" value="&lt;span style=&quot;color: rgb(0 , 0 , 0) ; font-family: &amp;#34;helvetica&amp;#34; ; font-size: 11px ; font-style: normal ; font-weight: 400 ; letter-spacing: normal ; text-align: left ; text-indent: 0px ; text-transform: none ; word-spacing: 0px ; background-color: rgb(255 , 255 , 255) ; display: inline ; float: none&quot;&gt;Payment Declined&lt;/span&gt;" style="text;whiteSpace=wrap;html=1;" vertex="1" parent="WIyWlLk6GJQsqaUBKTNV-1">
          <mxGeometry x="1178" y="2850" width="100" height="30" as="geometry" />
        </mxCell>
        <mxCell id="ng4lnUKTJqoICK68N6fb-46" style="edgeStyle=none;rounded=0;orthogonalLoop=1;jettySize=auto;html=1;exitX=0.5;exitY=1;exitDx=0;exitDy=0;entryX=0.5;entryY=0;entryDx=0;entryDy=0;entryPerimeter=0;startArrow=none;startFill=0;endArrow=classic;endFill=1;" edge="1" parent="WIyWlLk6GJQsqaUBKTNV-1" source="ng4lnUKTJqoICK68N6fb-38" target="ng4lnUKTJqoICK68N6fb-45">
          <mxGeometry relative="1" as="geometry" />
        </mxCell>
        <mxCell id="ng4lnUKTJqoICK68N6fb-38" value="&lt;font style=&quot;font-size: 14px&quot;&gt;Order Receipt&amp;nbsp;&lt;br&gt;&lt;/font&gt;&lt;hr style=&quot;font-size: 14px&quot;&gt;&lt;span style=&quot;font-size: 14px&quot;&gt;Order Number, Order Details and Charges, Pickup/Delivery Appointment&amp;nbsp;&lt;br&gt;&lt;/span&gt;" style="rounded=0;whiteSpace=wrap;html=1;strokeWidth=2;" vertex="1" parent="WIyWlLk6GJQsqaUBKTNV-1">
          <mxGeometry x="1307" y="3110" width="542" height="90" as="geometry" />
        </mxCell>
        <mxCell id="ng4lnUKTJqoICK68N6fb-40" value="&lt;span style=&quot;color: rgb(0 , 0 , 0) ; font-family: &amp;#34;helvetica&amp;#34; ; font-size: 11px ; font-style: normal ; font-weight: 400 ; letter-spacing: normal ; text-align: left ; text-indent: 0px ; text-transform: none ; word-spacing: 0px ; background-color: rgb(255 , 255 , 255) ; display: inline ; float: none&quot;&gt;Payment Successful&lt;/span&gt;" style="text;whiteSpace=wrap;html=1;" vertex="1" parent="WIyWlLk6GJQsqaUBKTNV-1">
          <mxGeometry x="1590" y="2960" width="110" height="30" as="geometry" />
        </mxCell>
        <mxCell id="ng4lnUKTJqoICK68N6fb-43" style="edgeStyle=orthogonalEdgeStyle;rounded=0;orthogonalLoop=1;jettySize=auto;html=1;exitX=0.5;exitY=0;exitDx=0;exitDy=0;endArrow=none;endFill=0;entryX=0.5;entryY=1;entryDx=0;entryDy=0;startArrow=classic;startFill=1;" edge="1" parent="WIyWlLk6GJQsqaUBKTNV-1" source="ng4lnUKTJqoICK68N6fb-41" target="ng4lnUKTJqoICK68N6fb-32">
          <mxGeometry relative="1" as="geometry">
            <mxPoint x="1530" y="3020" as="targetPoint" />
          </mxGeometry>
        </mxCell>
        <mxCell id="ng4lnUKTJqoICK68N6fb-47" style="edgeStyle=orthogonalEdgeStyle;rounded=0;orthogonalLoop=1;jettySize=auto;html=1;exitX=0.5;exitY=1;exitDx=0;exitDy=0;entryX=0.5;entryY=0;entryDx=0;entryDy=0;entryPerimeter=0;startArrow=none;startFill=0;endArrow=classic;endFill=1;" edge="1" parent="WIyWlLk6GJQsqaUBKTNV-1" source="ng4lnUKTJqoICK68N6fb-41" target="ng4lnUKTJqoICK68N6fb-45">
          <mxGeometry relative="1" as="geometry">
            <Array as="points">
              <mxPoint x="951" y="3255" />
              <mxPoint x="1578" y="3255" />
            </Array>
          </mxGeometry>
        </mxCell>
        <mxCell id="ng4lnUKTJqoICK68N6fb-41" value="&lt;font style=&quot;font-size: 14px&quot;&gt;Order Receipt gets emailed to the User (via Zapier)&lt;br&gt;&lt;/font&gt;&lt;hr style=&quot;font-size: 14px&quot;&gt;&lt;font style=&quot;font-size: 14px&quot;&gt;User receives the Order Receipt on the provided email&lt;/font&gt;" style="rounded=0;whiteSpace=wrap;html=1;strokeWidth=2;" vertex="1" parent="WIyWlLk6GJQsqaUBKTNV-1">
          <mxGeometry x="740" y="3110" width="422" height="90" as="geometry" />
        </mxCell>
        <mxCell id="ng4lnUKTJqoICK68N6fb-44" style="edgeStyle=orthogonalEdgeStyle;rounded=0;orthogonalLoop=1;jettySize=auto;html=1;exitX=0.5;exitY=0;exitDx=0;exitDy=0;endArrow=none;endFill=0;entryX=0.5;entryY=1;entryDx=0;entryDy=0;startArrow=classic;startFill=1;" edge="1" parent="WIyWlLk6GJQsqaUBKTNV-1" source="ng4lnUKTJqoICK68N6fb-42" target="ng4lnUKTJqoICK68N6fb-32">
          <mxGeometry relative="1" as="geometry">
            <mxPoint x="1760" y="3040" as="targetPoint" />
          </mxGeometry>
        </mxCell>
        <mxCell id="ng4lnUKTJqoICK68N6fb-48" style="edgeStyle=orthogonalEdgeStyle;rounded=0;orthogonalLoop=1;jettySize=auto;html=1;exitX=0.5;exitY=1;exitDx=0;exitDy=0;startArrow=none;startFill=0;endArrow=classic;endFill=1;entryX=0.5;entryY=0;entryDx=0;entryDy=0;entryPerimeter=0;" edge="1" parent="WIyWlLk6GJQsqaUBKTNV-1" target="ng4lnUKTJqoICK68N6fb-45">
          <mxGeometry relative="1" as="geometry">
            <mxPoint x="1740" y="3280" as="targetPoint" />
            <mxPoint x="1578" y="3270" as="sourcePoint" />
          </mxGeometry>
        </mxCell>
        <mxCell id="ng4lnUKTJqoICK68N6fb-42" value="&lt;font style=&quot;color: rgb(0 , 0 , 0) ; font-family: &amp;#34;helvetica&amp;#34; ; font-style: normal ; font-weight: 400 ; letter-spacing: normal ; text-align: center ; text-indent: 0px ; text-transform: none ; word-spacing: 0px ; background-color: rgb(248 , 249 , 250) ; font-size: 14px&quot;&gt;Order Receipt gets emailed to the Client (via Zapier)&lt;br&gt;&lt;/font&gt;&lt;hr style=&quot;color: rgb(0 , 0 , 0) ; font-family: &amp;#34;helvetica&amp;#34; ; font-style: normal ; font-weight: 400 ; letter-spacing: normal ; text-align: center ; text-indent: 0px ; text-transform: none ; word-spacing: 0px ; background-color: rgb(248 , 249 , 250) ; font-size: 14px&quot;&gt;&lt;font style=&quot;color: rgb(0 , 0 , 0) ; font-family: &amp;#34;helvetica&amp;#34; ; font-style: normal ; font-weight: 400 ; letter-spacing: normal ; text-align: center ; text-indent: 0px ; text-transform: none ; word-spacing: 0px ; background-color: rgb(248 , 249 , 250) ; font-size: 14px&quot;&gt;Client receives the Order Receipt&lt;/font&gt;" style="rounded=0;whiteSpace=wrap;html=1;strokeWidth=2;" vertex="1" parent="WIyWlLk6GJQsqaUBKTNV-1">
          <mxGeometry x="2000" y="3110" width="372" height="90" as="geometry" />
        </mxCell>
        <mxCell id="ng4lnUKTJqoICK68N6fb-51" style="edgeStyle=orthogonalEdgeStyle;rounded=0;orthogonalLoop=1;jettySize=auto;html=1;exitX=0;exitY=0.5;exitDx=0;exitDy=0;exitPerimeter=0;startArrow=none;startFill=0;endArrow=classic;endFill=1;entryX=0;entryY=0.5;entryDx=0;entryDy=0;" edge="1" parent="WIyWlLk6GJQsqaUBKTNV-1" source="ng4lnUKTJqoICK68N6fb-45" target="pszC3b5Wna7HMnzYmOuA-12">
          <mxGeometry relative="1" as="geometry">
            <mxPoint x="40" y="-220" as="targetPoint" />
            <Array as="points">
              <mxPoint x="40" y="3345" />
              <mxPoint x="40" y="-225" />
            </Array>
          </mxGeometry>
        </mxCell>
        <mxCell id="ng4lnUKTJqoICK68N6fb-54" style="edgeStyle=orthogonalEdgeStyle;rounded=0;orthogonalLoop=1;jettySize=auto;html=1;exitX=1;exitY=0.5;exitDx=0;exitDy=0;exitPerimeter=0;entryX=0;entryY=0.5;entryDx=0;entryDy=0;entryPerimeter=0;startArrow=none;startFill=0;endArrow=classic;endFill=1;" edge="1" parent="WIyWlLk6GJQsqaUBKTNV-1" source="ng4lnUKTJqoICK68N6fb-45" target="ng4lnUKTJqoICK68N6fb-53">
          <mxGeometry relative="1" as="geometry" />
        </mxCell>
        <mxCell id="ng4lnUKTJqoICK68N6fb-45" value="&lt;font style=&quot;font-size: 14px&quot;&gt;End of Application&lt;/font&gt;" style="strokeWidth=2;html=1;shape=mxgraph.flowchart.terminator;whiteSpace=wrap;fillColor=none;" vertex="1" parent="WIyWlLk6GJQsqaUBKTNV-1">
          <mxGeometry x="1522.8300000000002" y="3310" width="110.33" height="70" as="geometry" />
        </mxCell>
        <mxCell id="ng4lnUKTJqoICK68N6fb-50" value="" style="edgeStyle=orthogonalEdgeStyle;rounded=0;orthogonalLoop=1;jettySize=auto;html=1;exitX=0.5;exitY=1;exitDx=0;exitDy=0;startArrow=none;startFill=0;endArrow=none;endFill=1;entryX=0.5;entryY=0;entryDx=0;entryDy=0;entryPerimeter=0;" edge="1" parent="WIyWlLk6GJQsqaUBKTNV-1" source="ng4lnUKTJqoICK68N6fb-42">
          <mxGeometry relative="1" as="geometry">
            <mxPoint x="1578" y="3240" as="targetPoint" />
            <mxPoint x="2186" y="3200" as="sourcePoint" />
            <Array as="points">
              <mxPoint x="2186" y="3255" />
              <mxPoint x="1578" y="3255" />
            </Array>
          </mxGeometry>
        </mxCell>
        <mxCell id="ng4lnUKTJqoICK68N6fb-52" value="&lt;span style=&quot;color: rgb(0 , 0 , 0) ; font-family: &amp;#34;helvetica&amp;#34; ; font-size: 11px ; font-style: normal ; font-weight: 400 ; letter-spacing: normal ; text-align: left ; text-indent: 0px ; text-transform: none ; word-spacing: 0px ; background-color: rgb(255 , 255 , 255) ; display: inline ; float: none&quot;&gt;On Dismiss&amp;nbsp;&lt;/span&gt;" style="text;whiteSpace=wrap;html=1;" vertex="1" parent="WIyWlLk6GJQsqaUBKTNV-1">
          <mxGeometry x="1452.5" y="3320" width="70" height="30" as="geometry" />
        </mxCell>
        <mxCell id="ng4lnUKTJqoICK68N6fb-53" value="&lt;br&gt;Order Details gets Stored in Database&amp;nbsp;" style="strokeWidth=2;html=1;shape=mxgraph.flowchart.database;whiteSpace=wrap;" vertex="1" parent="WIyWlLk6GJQsqaUBKTNV-1">
          <mxGeometry x="1772" y="3302.5" width="260" height="85" as="geometry" />
        </mxCell>
      </root>
    </mxGraphModel>
  </diagram>
</mxfile>
